<?xml version="1.0" encoding="UTF-8"?>
<svg id="Layer_1" data-name="Layer 1" xmlns="http://www.w3.org/2000/svg" viewBox="0 0 877.28 209.22">
  <defs>
    <style>
      .cls-1 {
        fill: #fe747b;
      }

      .cls-2 {
        fill: #ff7078;
      }

      .cls-3 {
        fill: #fe727a;
      }

      .cls-4 {
        fill: #fe737a;
      }
    </style>
  </defs>
  <path class="cls-3" d="M868.03,62.06c.97,1.11.24,12.6-.04,14.73-1.77,13.33-5.7,27.97-7.86,41.58-3.92,24.78-6.47,51.94-11.44,76.42-1.59,7.82-4.29,15.23-13.7,14.36l-87.29-25.01c-9.14-3.78-6.06-12.23-3.44-19.36,10.98-29.96,25.9-61.38,38.5-90.97,3.36-7.87,7.89-23.76,12.91-29.92,2.64-3.24,8.69-1.33,12.25-.48,15.4,3.69,40.96,10.16,55.18,15.8,1.89.75,3.11,2.01,4.91,2.86h0ZM842.65,113.08c-4.6-2.61-14.85-3.3-20.1-5.76l-.4-1.57,22.49-31.89c.96-2.59,1.17-4.61-2.21-3.92-.94.19-13.87,9.69-15.76,11.06-8.21,5.99-15.91,12.38-23.59,18.19-6.23,4.71-12.61,9.29-18.88,13.86-1.2,2.01-1.4,3.21.76,4.5,2.72,1.62,21.17,6.04,21.77,7.01-2.09,6.81-27.22,34.99-27.24,39-.02,5.05,7.2-.43,8.65-1.51,13.63-10.14,26.75-21.16,40.08-32.1,2.73-2.24,15.63-10.94,16.12-13.49.12-1.11-.81-2.88-1.69-3.38h0Z"/>
  <path class="cls-3" d="M869.56,15.28c3.91,4.43,8.16,14.11,7.67,20.13-.21,2.63-2.47,12.03-3.61,14.09-.69,1.23-1.81,1.24-2.98,1.6-20.69-7.66-46.96-10.64-66.98-18.83-1.16-.47-3.8-1.86-4.06-3.06-.85-3.88,4.93-15.7,7.88-18.92,15.6-17.04,47.78-11.19,62.09,5ZM839.91,13.85c1.29,3.15,9.11,4.5,8.12-1.85-1.75-4.89-10.24-3.33-8.12,1.85ZM860.4,23.45c4.81-3.45-2.93-10.18-7.11-6.95-4.64,4.68,3.71,9.38,7.11,6.95ZM833.99,11.82c-.68-3.41-10.25-5.73-9.85.39,1.29,3.92,10.79,4.29,9.85-.39Z"/>
  <path class="cls-2" d="M42.17,143.62c1.17.72-.7,5.59-.38,7.12,1.19,5.8,9.95-4.11,11.83-5.25,4.93-3.01,24.56-.92,32.16-1.93,16-2.12,30.77-19.96,15.73-32.89-.69-.59-4.69-2.55-4.68-3.25,0-1.18,15.09-14.56,16.5-16.88,3.59-3.37,10.04.45,13.52,2.73,19.12,12.54,14.74,41.21,2.18,57.11s-30.03,21.86-49.71,22.69c-21.47.91-49.24,1.27-70.57,0-8.68-.51-9.75-.25-8.09-9.07.47-2.51,4.4-17.91,5.34-18.95.25-.28,2.17-1.43,2.31-1.43,4.34,0,32.42-.88,33.86,0h0Z"/>
  <path class="cls-2" d="M102.19,48.79c-3.74-1.13,5.25-7.4.22-9.56-4.8-2.07-9.53,7.73-13.99,8.87-5.81,1.49-17.26-.39-24,.28-13.11,1.3-23.52,16.41-17.3,28.85.9,1.8,4.76,4.87,4.05,6.93-1.15,3.28-14.1,12.28-16.45,16.26-3.85,3.27-10.66-3.63-13.11-6.55-14.9-17.75-8.04-48.6,8.78-62.83,18.93-16.01,40.13-12.96,62.9-13.07,17.68-.08,35.38-.15,53.05.19,1.87.14,3.71,2.26,3.64,4.11-.11,2.97-4.45,20.13-5.67,23.34-.48,1.28-2.65,3.17-3.83,3.17h-38.3,0Z"/>
  <path class="cls-2" d="M91.68,59.07c.98.87-10.75,22.26-9.59,24.29,1.39,2.42,21.18-1.2,24.53,1.17l-53.23,50.68c1.33-3.4,12.69-27.15,12.09-28.66-.49-1.24-19.29-1.26-22.09-.79l-.74-1.13,47.18-45.31c.39-.23,1.68-.4,1.85-.24h0Z"/>
  <g id="Layer_2_Image" data-name="Layer 2 Image">
    <g>
      <path class="cls-3" d="M149.01,173.78c-1.16-.42-2.27-2.34-2.27-3.7L198.31,23.14c4.11-7.85,36-6.39,40.08-.85l49.63,139.94,1.04,11.55c-8.3-.09-27.39,4.5-34.02-.82-4.64-3.73-5.83-25.04-11.44-27.07l-52.54.64c-1.32,3.91-8.01,27.25-10.94,27.25-5.71,0-27.95,1.14-31.12,0ZM201.62,114.55h34.09l-18.51-48.87-15.58,48.87Z"/>
      <path class="cls-3" d="M644,19.79c3.42,1.18,25.06,57.85,31.14,65.16l32.59-65.16h32.6c2.46,0,1.96,4.03,1.57,5.94-5.57,27.27-41.99,73.37-47.53,100.65-2.07,10.18,2.46,43.48-4.34,47.49-3.88,2.29-29.61,2.68-32.08-1.09-3.84-5.87.23-35.52-1.7-45.31-4.17-21.09-34.87-69.22-44.37-93.38-.96-2.45-6.95-14.32-1.97-14.32,6.34,0,30.4-1.27,34.09,0Z"/>
      <path class="cls-4" d="M477.28,53.84v114.75c0,9.97-38.53,8.75-38.53,1.48V53.84c-7.73-1.44-37.6,2.42-41.61-3.59-2.56-3.84-2.74-27.55,1.59-29.73l119-.43c6.49,2.02,6.73,33.75-2.66,33.75h-37.79Z"/>
      <path class="cls-1" d="M573.61,139.72h60.02c6.8,0,9.29,32.39.87,34.89-26.86-1.89-64.2,4.71-89.86.72-3.67-.57-5.3-1.31-6.96-4.9l-.79-145.13c.27-9.48,36.71-6.34,36.71-1.82v116.23Z"/>
      <path class="cls-3" d="M347.6,19.79l3.53,120.54c2.69,3.12,52.67-1.97,61.42,1.13,5.47,1.94,6.97,29.4-.87,32.68-5.03,2.1-80.04,2.28-89.3,1.11-2.91-.37-8.13-1.4-8.13-5.17V23.49c0-.26,3.44-3.7,3.71-3.7h29.64Z"/>
    </g>
  </g>
</svg>