<svg width="246" height="235" viewBox="0 0 246 235" fill="none" xmlns="http://www.w3.org/2000/svg">
<path d="M122.184 0C185.041 0 238.387 34.482 243.192 102.591C244.957 127.605 254.019 233.69 211.078 234.73C198.559 235.036 194.128 219.741 183.939 219.666C173.64 219.591 168.22 234.724 155.499 234.73C143.447 234.736 137.944 219.675 127.973 219.666C117.005 219.656 113.112 234.621 99.7402 234.73C83.7359 234.861 73.8154 218.457 70.5938 204.944C13.3271 199.912 6.33188e-05 146.615 0 98.4434C0 30.0991 62.8023 5.15612e-06 122.184 0ZM130.845 83.9912C122.691 83.9912 116.08 90.6009 116.08 98.7549V124.583C116.08 132.737 122.691 139.347 130.845 139.347C138.999 139.347 145.608 132.737 145.608 124.583V98.7549C145.608 90.601 138.999 83.9914 130.845 83.9912ZM192.77 83.9912C184.615 83.9912 178.006 90.6009 178.006 98.7549V124.583C178.006 132.737 184.615 139.347 192.77 139.347C200.924 139.347 207.533 132.737 207.533 124.583V98.7549C207.533 90.6009 200.924 83.9912 192.77 83.9912Z" fill="currentColor"/>
</svg>
